<?xml version="1.0" standalone="no"?>
<!DOCTYPE svg PUBLIC "-//W3C//DTD SVG 20010904//EN"
 "http://www.w3.org/TR/2001/REC-SVG-20010904/DTD/svg10.dtd">
<svg version="1.0" xmlns="http://www.w3.org/2000/svg"
 width="1310.000000pt" height="1257.000000pt" viewBox="0 0 1310.000000 1257.000000"
 preserveAspectRatio="xMidYMid meet">

<g transform="translate(0.000000,1257.000000) scale(0.100000,-0.100000)"
fill="#000000" stroke="none">
<path d="M6100 12165 c0 -3 52 -69 115 -145 186 -228 255 -331 313 -472 54
-131 40 -132 -62 -5 -169 212 -208 239 -187 126 5 -30 13 -67 16 -82 8 -32
-13 -38 -36 -11 -38 46 -335 215 -427 244 -15 5 -52 18 -82 30 -30 11 -107 32
-170 46 -196 43 -460 32 -592 -25 -93 -39 -134 -61 -162 -84 l-29 -24 64 -51
c164 -131 420 -223 797 -288 239 -41 -1 -71 -309 -39 -79 8 -155 17 -169 20
-14 2 -50 7 -80 10 -30 4 -84 10 -120 15 -200 29 -418 1 -645 -82 -165 -60
-562 -264 -572 -295 -2 -6 18 -13 49 -17 29 -4 123 -21 208 -37 220 -43 388
-68 512 -75 116 -7 128 -19 48 -43 -22 -6 -40 -17 -40 -24 0 -7 25 -28 56 -47
51 -31 55 -35 38 -47 -10 -7 -24 -13 -32 -13 -61 0 -436 -159 -611 -260 -151
-87 -387 -277 -368 -296 6 -6 220 52 376 102 31 10 48 11 55 4 13 -13 -96
-118 -244 -233 -151 -118 -284 -255 -362 -372 -94 -141 -173 -314 -194 -429
l-7 -38 44 7 c90 15 172 50 454 190 160 79 342 163 405 186 356 129 607 206
622 191 4 -4 -5 -68 -21 -142 -16 -74 -35 -174 -42 -223 l-12 -87 -41 -10
c-389 -97 -808 -267 -1136 -460 -742 -439 -1338 -1086 -1706 -1855 -234 -490
-366 -962 -419 -1503 -21 -211 -16 -690 9 -892 90 -719 309 -1311 712 -1922
57 -87 104 -161 104 -166 0 -4 21 -35 48 -68 26 -32 59 -75 72 -94 14 -19 61
-76 105 -126 44 -50 87 -100 96 -110 13 -16 173 -172 390 -380 19 -19 40 -34
46 -34 6 0 24 -16 41 -36 19 -22 35 -33 43 -28 8 4 9 3 5 -4 -4 -7 -2 -12 3
-12 6 0 19 -7 29 -15 64 -56 95 -77 133 -90 88 -30 128 -60 97 -69 -7 -3 -40
-12 -73 -22 -48 -15 -73 -31 -130 -86 -39 -37 -84 -72 -99 -78 -46 -17 -139
-11 -231 15 -115 34 -180 64 -565 262 -368 190 -612 265 -753 233 -118 -28
-143 -56 -445 -495 -288 -418 -517 -661 -779 -820 -66 -41 -123 -86 -175 -140
-76 -78 -78 -81 -78 -130 l0 -50 642 2 c354 2 1174 7 1823 13 649 6 1920 15
2825 20 905 5 2106 14 2670 20 564 6 1374 12 1800 15 426 2 1308 9 1960 14
652 5 1229 10 1283 10 l97 1 0 120 c0 116 -1 120 -22 124 -167 33 -609 150
-823 218 -159 50 -450 151 -590 205 -96 37 -459 188 -486 203 -9 4 -61 27
-115 50 -54 24 -133 58 -174 77 -104 48 -148 68 -195 88 -76 33 -120 53 -177
79 -543 249 -984 410 -1335 485 -78 17 -163 31 -188 31 -26 0 -45 4 -43 9 2 6
35 43 73 83 114 118 318 359 310 366 -5 5 -73 -46 -270 -203 -250 -198 -321
-240 -430 -249 -88 -7 -235 -43 -329 -81 -33 -13 -62 -23 -63 -21 -2 2 30 24
71 50 90 56 343 243 564 418 255 201 405 300 606 403 115 58 119 62 149 117
17 31 28 60 25 63 -17 17 -373 -95 -572 -180 -241 -103 -645 -328 -1041 -581
-38 -24 -73 -44 -77 -44 -12 0 -32 80 -22 89 5 4 108 73 229 153 221 146 329
209 418 242 80 30 46 28 -69 -3 -174 -48 -467 -91 -627 -91 -45 0 -49 2 -63
35 -26 62 -28 61 130 68 192 9 271 21 451 68 82 22 168 44 189 50 27 7 49 7
69 -1 17 -5 31 -10 33 -10 1 0 8 16 14 36 13 38 80 97 163 142 89 49 107 60
145 85 70 46 473 212 612 251 25 8 85 26 134 41 88 28 89 29 108 74 10 25 25
60 33 76 21 47 53 136 112 315 77 235 75 227 95 320 38 170 44 195 51 210 11
25 50 323 63 480 15 189 16 223 3 230 -25 16 -396 22 -609 10 -322 -17 -332
-18 -510 -50 -385 -69 -552 -115 -720 -200 -222 -112 -282 -258 -153 -376 20
-19 34 -36 31 -39 -16 -16 -478 79 -737 151 -112 31 -128 39 -163 75 -37 38
-41 40 -58 24 -14 -13 -23 -14 -38 -6 -12 6 -28 8 -36 5 -14 -5 -16 7 -16 92
0 112 -13 140 -65 146 -22 2 -31 9 -33 26 -4 27 -22 29 -22 2 0 -11 -4 -20 -9
-20 -5 0 -12 35 -14 77 -5 82 -21 175 -37 218 l-10 25 -133 0 -134 0 -16 -57
c-20 -71 -19 -58 -21 -293 0 -122 -5 -195 -11 -195 -5 0 -9 14 -7 32 3 23 -2
34 -16 42 -18 10 -19 29 -24 469 -4 332 -9 464 -17 481 -23 41 -67 51 -237 51
l-157 0 7 -409 c7 -409 4 -461 -26 -397 -14 32 -26 33 -30 4 -2 -16 -13 -25
-37 -32 -49 -14 -107 -73 -120 -123 -11 -41 -11 -41 -65 -45 -88 -5 -82 -17
-89 169 -4 91 -7 210 -7 264 0 94 -1 98 -22 101 -17 2 -24 11 -26 31 l-3 27
-105 0 c-103 0 -104 0 -104 -24 0 -13 -6 -29 -14 -35 -10 -9 -15 -52 -18 -176
-2 -98 -8 -169 -14 -175 -18 -18 -25 112 -18 308 4 101 2 265 -5 382 -6 113
-13 250 -16 305 -8 165 -8 621 -1 634 4 6 3 11 -3 11 -22 0 1 106 42 187 l41
83 -11 82 c-7 48 -17 86 -25 92 -26 20 -46 60 -53 107 l-7 46 64 5 c129 11
473 106 454 126 -3 2 -78 -14 -168 -37 -163 -41 -354 -75 -370 -65 -4 3 -8 25
-8 49 0 24 -5 47 -11 51 -7 4 -9 23 -6 49 4 23 2 46 -4 52 -6 6 -8 83 -7 194
2 144 6 183 16 181 7 -1 41 5 75 14 34 9 70 18 79 19 10 0 21 4 24 8 4 4 18 7
31 7 33 0 94 33 71 38 -26 5 -305 -66 -365 -94 -28 -13 -54 -24 -57 -24 -9 0
-130 -58 -146 -70 -17 -13 -25 -16 105 32 44 17 88 31 98 31 9 1 17 5 17 9 0
4 5 8 10 8 14 0 13 -353 -1 -367 -8 -8 -8 -13 0 -17 14 -9 14 -63 1 -71 -5 -3
-10 -30 -10 -60 0 -38 -4 -55 -15 -59 -8 -3 -15 -16 -15 -28 1 -49 -14 -94
-40 -124 -22 -26 -28 -45 -34 -108 l-7 -78 46 -84 c42 -79 45 -89 41 -144 -2
-33 0 -63 5 -66 10 -6 10 -564 0 -774 l-6 -135 -70 0 -70 0 0 277 0 277 -50 3
-50 3 -5 50 c-5 46 -7 50 -32 53 -22 3 -28 9 -28 27 0 12 -7 25 -15 29 -8 3
-15 16 -15 29 0 13 -4 27 -9 32 -13 13 -32 155 -25 182 3 12 1 30 -4 40 -10
16 -11 15 -16 -7 -3 -14 -7 -67 -9 -119 -3 -60 -9 -96 -17 -101 -7 -4 -10 -15
-7 -24 4 -10 -1 -21 -13 -28 -11 -7 -20 -23 -20 -35 0 -16 -7 -22 -27 -25 -25
-3 -26 -7 -27 -53 l-1 -50 -45 -3 c-61 -4 -75 -9 -62 -25 12 -14 21 -1027 10
-1027 -5 0 -8 16 -8 35 0 21 -9 48 -22 66 -22 29 -23 40 -26 271 -3 228 -4
240 -23 245 -10 3 -19 11 -19 18 0 15 -115 31 -151 22 -41 -11 -78 3 -82 32
l-4 26 -2 -25 c0 -14 -15 -41 -31 -59 l-31 -33 1 -409 0 -409 -25 0 c-20 0
-25 5 -25 25 0 21 -5 25 -29 25 -37 0 -47 15 -26 36 10 10 12 20 7 28 -5 6
-12 46 -16 90 -8 89 -28 149 -60 174 -24 18 -46 118 -46 203 0 36 -8 76 -27
139 -10 33 -22 -19 -37 -158 -9 -78 -15 -145 -14 -150 4 -10 -66 -72 -81 -72
-31 0 -71 -31 -71 -55 0 -16 -6 -25 -15 -25 -13 0 -15 23 -15 149 0 187 -8
271 -26 271 -10 0 -14 13 -14 39 0 59 -36 81 -129 81 -98 0 -141 -26 -141 -86
0 -19 -6 -34 -15 -38 -14 -5 -15 -37 -10 -266 5 -230 4 -260 -10 -260 -15 0
-17 80 -21 815 -1 210 2 195 -38 195 -18 0 -39 7 -46 15 -7 8 -19 15 -26 15
-8 0 -14 10 -14 24 0 14 -4 27 -9 30 -15 10 -124 10 -176 0 -42 -8 -51 -13
-53 -34 -5 -30 -29 -49 -64 -50 -56 0 -58 -4 -58 -117 0 -92 -2 -104 -16 -99
-9 3 -20 6 -24 6 -5 0 -11 46 -12 103 l-3 102 -33 3 c-41 4 -72 29 -72 59 0
16 -8 25 -25 29 -35 9 -112 8 -170 -2 -46 -8 -50 -12 -53 -39 -3 -33 -36 -55
-84 -55 l-27 0 -3 -91 -3 -92 -67 -22 c-73 -24 -124 -53 -153 -85 -10 -11 -26
-20 -36 -20 -17 0 -19 -13 -21 -147 l-3 -148 -70 4 c-38 2 -72 5 -74 7 -13 12
50 476 83 614 7 30 21 91 31 135 28 129 25 125 97 125 141 0 454 43 598 81
232 61 350 138 350 228 0 92 -126 170 -372 230 -68 17 -147 33 -175 37 -31 4
-53 12 -53 18 0 40 -34 116 -66 149 -20 21 -35 40 -32 42 3 3 93 14 201 25
504 51 853 135 1023 247 72 48 99 87 99 145 0 42 -5 52 -44 92 -52 53 -111 85
-241 133 -116 42 -357 100 -457 109 -40 4 -73 9 -73 12 0 40 493 533 586 585
10 6 43 30 72 54 30 24 89 67 131 95 42 27 96 65 121 82 39 29 206 127 302
178 84 45 335 161 396 182 37 13 118 42 181 65 188 69 586 164 776 186 28 3
84 10 125 15 41 5 94 10 116 10 36 0 43 -3 48 -25 6 -25 8 -25 105 -25 76 0
107 4 130 17 16 10 32 15 35 12 3 -3 -1 -59 -9 -125 -8 -65 -20 -159 -26 -209
-36 -292 -72 -439 -154 -620 -84 -187 -111 -251 -131 -315 -30 -91 -53 -200
-47 -217 25 -64 200 111 396 395 60 87 114 158 121 160 9 2 20 -25 34 -80 23
-91 46 -153 61 -162 28 -17 165 150 225 274 75 153 118 333 136 575 10 126 22
168 36 130 4 -10 35 -64 69 -119 195 -319 282 -534 293 -724 6 -114 12 -111
77 37 40 90 79 210 99 304 8 37 22 34 36 -7 15 -46 75 -114 116 -131 37 -15
38 -18 54 -155 7 -52 25 -168 41 -257 69 -382 92 -648 70 -808 -7 -44 -16
-116 -22 -160 -10 -82 -33 -210 -75 -418 -33 -163 -23 -173 71 -74 89 93 173
197 240 296 88 129 88 129 117 80 13 -22 52 -71 86 -107 107 -115 293 -345
285 -352 -4 -4 -66 -18 -138 -30 -219 -38 -356 -89 -414 -155 -97 -111 41
-215 367 -277 104 -19 151 -22 422 -22 272 -1 318 1 425 21 208 38 367 100
416 161 30 39 22 107 -18 140 -121 101 -423 163 -792 163 l-198 -1 -83 106
c-125 159 -266 323 -321 375 -27 25 -49 52 -49 60 0 9 21 58 46 110 70 144
164 395 164 438 0 10 6 25 13 36 12 16 15 7 21 -71 8 -108 34 -248 51 -271 11
-14 18 -5 59 70 115 210 166 420 166 677 -1 383 -123 764 -327 1016 -32 40
-41 64 -25 64 4 0 46 -23 92 -52 152 -92 287 -245 441 -498 42 -69 80 -125 85
-125 5 0 16 27 26 60 21 77 23 223 3 300 -35 133 -129 291 -237 395 -37 37
-68 72 -68 78 0 6 21 1 53 -13 104 -47 122 -35 93 59 -72 227 -362 508 -615
594 -28 9 -52 21 -53 26 -2 5 20 15 48 21 58 13 165 69 242 127 30 22 55 38
57 36 2 -2 -6 -36 -17 -77 -31 -113 -18 -114 149 -5 189 123 316 176 396 166
20 -2 37 -1 37 3 0 18 -110 131 -193 199 -212 172 -612 385 -867 461 -30 9
-65 21 -78 26 -13 5 -33 9 -45 9 -18 0 -15 -6 25 -47 46 -48 75 -93 61 -93 -4
0 -33 10 -63 22 -99 40 -350 28 -455 -22 -53 -25 -182 -70 -201 -70 -26 0 -31
15 -39 125 -35 463 -194 860 -446 1116 -137 140 -270 225 -443 285 -72 25 -86
28 -86 19z m-265 -2695 c-3 -5 -16 -10 -28 -10 -18 0 -19 2 -7 10 20 13 43 13
35 0z m-2985 -6021 c308 -43 453 -72 760 -153 384 -101 780 -97 1043 10 110
45 159 53 188 31 9 -7 35 -43 59 -82 60 -95 120 -176 149 -200 13 -11 44 -42
70 -69 48 -50 222 -186 239 -186 5 0 26 -13 47 -30 21 -16 42 -30 46 -30 5 0
37 -17 71 -38 35 -21 92 -49 128 -62 36 -13 70 -26 75 -30 24 -17 208 -70 295
-86 52 -9 160 -18 240 -21 123 -4 159 -2 237 16 97 22 127 19 165 -16 16 -14
20 -14 40 1 13 9 34 24 48 33 14 10 48 41 76 70 l52 53 71 0 c39 0 71 -4 71
-8 0 -13 -140 -144 -226 -212 -154 -122 -400 -223 -689 -283 -408 -86 -925
-51 -1550 104 -290 73 -685 191 -792 239 -44 19 -75 18 -43 -1 236 -143 737
-407 910 -479 30 -13 59 -27 64 -32 6 -4 16 -8 23 -8 7 0 32 -9 56 -19 425
-190 993 -302 1454 -287 273 8 500 36 735 90 41 9 58 10 61 2 6 -16 -4 -75
-13 -81 -17 -11 -248 -48 -425 -70 -391 -47 -813 -34 -1125 35 -306 68 -855
261 -1285 451 -473 209 -591 260 -666 287 -105 39 -303 95 -392 112 -66 12
-69 14 -123 77 -30 36 -53 68 -50 70 11 11 230 -42 381 -92 193 -64 355 -133
506 -214 62 -34 117 -60 121 -59 18 6 -368 242 -562 344 -180 95 -406 185
-556 224 -32 8 -48 20 -70 53 -45 67 -65 107 -53 107 24 0 170 -42 264 -75 55
-20 111 -40 125 -45 28 -9 338 -134 385 -155 244 -109 823 -321 1000 -365 17
-5 82 -22 145 -38 121 -33 265 -64 365 -81 33 -6 74 -13 90 -16 102 -18 331
-35 479 -35 329 0 606 51 880 161 66 27 124 54 130 60 8 9 6 10 -8 5 -79 -28
-350 -31 -516 -6 -483 74 -970 369 -1207 733 l-63 97 -38 -16 c-145 -64 -259
-90 -449 -104 -214 -16 -492 12 -712 71 -231 63 -439 109 -576 128 -44 6 -111
15 -150 20 -38 6 -132 13 -208 17 l-138 7 -20 38 c-10 21 -19 40 -19 43 0 17
249 14 380 -5z m4484 -770 c39 -12 99 -30 134 -41 34 -10 110 -26 169 -35 104
-16 106 -17 119 -49 8 -18 14 -43 14 -55 0 -17 -4 -20 -22 -16 -13 4 -63 13
-113 21 -111 18 -250 53 -418 106 -71 22 -135 40 -143 40 -8 0 -14 4 -14 8 0
9 127 38 174 41 16 0 61 -9 100 -20z m560 -576 c4 -16 9 -36 12 -45 5 -17 -10
-29 -117 -92 -43 -24 -48 -25 -63 -11 -9 9 -16 31 -16 50 0 31 5 36 78 79 42
25 82 45 88 46 7 0 15 -12 18 -27z m-220 -147 c10 -48 3 -75 -21 -83 -13 -5
-29 110 -18 127 13 22 30 3 39 -44z m-572 -208 c10 -23 17 -42 15 -44 -1 -1
-13 -4 -27 -6 -22 -3 -25 1 -28 30 -7 71 15 81 40 20z m268 -73 c0 -8 -154
-94 -161 -89 -4 2 -2 19 5 37 8 17 11 38 9 45 -4 9 15 12 71 12 42 0 76 -2 76
-5z m-227 -68 c12 -49 5 -63 -40 -84 -21 -9 -41 -19 -45 -21 -10 -5 -10 99 0
115 9 14 52 33 67 29 5 -1 14 -19 18 -39z m-132 -62 c-1 -28 -8 -55 -14 -62
-42 -42 -566 -181 -802 -213 -33 -5 -94 -13 -135 -20 -318 -47 -703 -67 -955
-50 -170 12 -187 15 -315 57 -74 25 -142 52 -150 60 -13 14 -11 15 19 9 77
-14 583 -19 782 -7 528 31 698 50 979 112 192 42 504 133 550 160 33 19 44 6
41 -46z m-27 -293 c2 -4 2 -13 -2 -18 -12 -19 -354 -146 -438 -164 -92 -19
-398 -40 -584 -40 -282 0 -463 21 -705 81 -44 11 -100 25 -125 31 -25 6 -56
17 -70 25 l-25 13 25 -5 c70 -13 421 -27 705 -27 416 0 827 33 1110 91 50 10
93 19 97 20 4 0 9 -3 12 -7z"/>
<path d="M6038 7783 c-10 -2 -18 -8 -18 -13 0 -12 28 -16 105 -15 145 2 355
-16 484 -41 197 -38 397 -114 456 -173 26 -26 45 -49 46 -56 6 -46 24 -58 34
-24 10 31 -2 81 -28 111 -70 81 -383 184 -633 208 -107 10 -412 12 -446 3z"/>
<path d="M9485 7354 c-236 -46 -365 -119 -352 -200 6 -33 5 -33 -41 -39 -195
-25 -341 -88 -330 -142 10 -54 309 -122 612 -139 136 -7 146 -10 146 -37 0
-64 102 -146 238 -191 140 -47 232 -66 232 -50 0 16 -32 132 -44 159 -7 17
-20 46 -29 65 -9 19 -22 53 -29 75 -17 53 -198 418 -234 473 -32 48 -46 50
-169 26z"/>
<path d="M4639 7237 c-14 -18 -34 -46 -43 -64 -9 -18 -36 -46 -60 -62 -24 -17
-46 -37 -49 -46 -8 -19 -31 -19 -61 0 -22 14 -25 14 -41 -1 -15 -16 -19 -15
-58 6 -23 13 -62 40 -87 61 -36 30 -108 69 -126 69 -11 0 0 -21 37 -70 50 -68
59 -75 123 -96 53 -17 96 -48 96 -70 0 -6 16 -26 35 -43 40 -35 76 -39 140
-17 51 18 57 36 12 36 -36 0 -64 21 -52 40 4 6 26 20 50 31 57 27 79 53 106
124 44 121 34 170 -22 102z"/>
<path d="M6730 7217 c0 -15 41 -55 82 -80 64 -40 292 -76 603 -97 146 -9 222
-4 218 15 -3 11 -61 18 -298 35 -262 18 -434 53 -533 106 -71 39 -72 39 -72
21z"/>
<path d="M4710 7108 c-50 -14 -23 -24 90 -32 52 -4 160 -16 239 -27 186 -27
363 -21 312 10 -7 4 -61 11 -119 14 -59 3 -161 15 -227 26 -129 22 -239 25
-295 9z"/>
<path d="M4914 6927 c-28 -12 -61 -30 -75 -39 l-24 -17 26 0 c15 -1 44 6 64
15 30 12 44 13 62 5 13 -6 32 -11 43 -11 12 0 22 -12 30 -35 15 -46 57 -95 81
-95 17 0 18 5 13 43 -4 23 -11 52 -15 64 -5 14 -4 25 3 29 16 10 -91 63 -127
63 -16 0 -53 -10 -81 -22z"/>
<path d="M8170 5720 c0 -56 22 -104 66 -142 21 -18 42 -38 48 -43 36 -35 138
-67 299 -95 331 -58 416 -87 512 -176 47 -45 105 -124 105 -145 0 -6 7 -23 15
-37 8 -15 24 -48 35 -74 10 -27 24 -48 30 -48 14 0 13 16 -4 53 -8 18 -28 68
-46 112 -18 44 -39 89 -46 100 -37 53 -112 118 -168 145 -69 34 -227 72 -396
95 -127 18 -246 53 -301 90 -49 32 -102 100 -124 158 -10 26 -19 47 -21 47 -2
0 -4 -18 -4 -40z"/>
<path d="M9625 3091 c-187 -65 -275 -101 -425 -173 -153 -74 -388 -214 -377
-224 2 -2 50 19 106 47 196 96 495 205 703 256 l110 27 29 58 c37 73 37 73
-146 9z"/>
</g>
</svg>
